<svg width="25" height="25" viewBox="0 0 25 25" fill="none" xmlns="http://www.w3.org/2000/svg">
<rect width="25" height="25" rx="5" fill="#E22F2F"/>
<g opacity="0.300003">
<g opacity="0.300003">
<path opacity="0.300003" d="M21.5 20.808C21.5 21.1125 17.5825 21.3594 12.75 21.3594C7.91751 21.3594 4 21.1125 4 20.808C4 20.5034 7.91751 20.2566 12.75 20.2566C17.5825 20.2566 21.5 20.5034 21.5 20.808Z" fill="#000072"/>
</g>
</g>
<path d="M20.115 20.1184C19.7677 20.5139 19.2583 20.7363 18.7263 20.7363H6.77288C6.24094 20.7363 5.73151 20.5139 5.38427 20.1184C5.19242 19.8998 5.0506 19.6563 4.95521 19.4071C4.95486 19.4071 4.95486 19.4071 4.95486 19.4068C4.65477 18.625 4.80767 17.786 5.28638 17.4842C6.09019 16.9769 6.71001 17.5969 6.71001 17.5969C6.7786 17.4386 6.87148 17.3014 6.97544 17.1839C7.36698 16.7396 7.91571 16.5705 7.91571 16.5705C7.61741 14.8901 8.28332 13.3676 8.28332 13.3676C8.28332 13.3676 9.92415 14.5855 12.7496 14.5855C15.5751 14.5855 17.2159 13.3676 17.2159 13.3676C17.2159 13.3676 17.8818 14.8901 17.5835 16.5705C17.5835 16.5705 18.462 16.8414 18.7892 17.5969C18.7892 17.5969 19.409 16.9769 20.2128 17.4842C20.8441 17.8825 20.9088 19.2149 20.115 20.1184Z" fill="#B11313"/>
<g opacity="0.300003">
<g opacity="0.300003">
<path opacity="0.300003" d="M7.18848 19.1445C7.29923 18.0915 6.71191 17.6371 6.71191 17.6371C6.78051 17.4788 6.87339 17.3416 6.97735 17.2241C7.88833 18.2943 7.18848 19.1445 7.18848 19.1445Z" fill="#000072"/>
</g>
</g>
<g opacity="0.300003">
<g opacity="0.300003">
<path opacity="0.300003" d="M18.3173 19.1445C18.2066 18.0915 18.7939 17.6371 18.7939 17.6371C18.7253 17.4788 18.6324 17.3416 18.5285 17.2241C17.6175 18.2943 18.3173 19.1445 18.3173 19.1445Z" fill="#000072"/>
</g>
</g>
<g opacity="0.300003">
<g opacity="0.300003">
<path opacity="0.300003" d="M18.4106 20.0313C18.3255 20.0104 18.2378 20.0033 18.1506 20.0127C18.0264 20.0261 17.8126 20.0469 17.4991 20.0699C17.0273 20.1047 16.6152 19.7564 16.583 19.2927C16.5691 19.0935 16.5995 18.9389 16.6105 18.891C16.4872 19.4084 16.2597 19.885 16.121 20.1464C15.4167 20.1753 14.5247 20.1987 13.4217 20.2056C13.3622 18.1122 14.6003 16.1493 14.6003 16.1493C12.7033 17.6399 10.9054 16.1493 10.9054 16.1493C12.1572 18.3316 12.092 20.1147 12.092 20.1147L12.3029 20.2068C11.0983 20.2018 10.135 20.1772 9.38474 20.1465C9.24601 19.8851 9.01848 19.4084 8.89526 18.891C8.9067 18.9408 8.93906 19.1061 8.92087 19.3169C8.88172 19.7707 8.46927 20.104 8.00695 20.07C7.69325 20.0469 7.47942 20.0261 7.35514 20.0127C7.26794 20.0033 7.1802 20.0104 7.09508 20.0313C5.73498 20.3639 4.9813 19.4794 4.95703 19.4501C5.05242 19.6992 5.19424 19.9428 5.38608 20.1614C5.73333 20.5568 6.24276 20.7793 6.7747 20.7793H12.7529H18.731C19.263 20.7793 19.7724 20.5568 20.1196 20.1614C20.3115 19.9428 20.4533 19.6992 20.5487 19.4501C20.5244 19.4794 19.7707 20.3639 18.4106 20.0313Z" fill="#000072"/>
</g>
</g>
<g opacity="0.300003">
<g opacity="0.300003">
<path opacity="0.300003" d="M8.89248 18.8906C8.89016 18.8803 8.88867 18.8747 8.88867 18.8747C8.88989 18.88 8.89124 18.8853 8.89248 18.8906Z" fill="#000072"/>
</g>
</g>
<g opacity="0.300003">
<g opacity="0.300003">
<path opacity="0.300003" d="M16.6104 18.8906C16.6116 18.8853 16.6129 18.8801 16.6142 18.8747C16.6142 18.8747 16.6127 18.8804 16.6104 18.8906Z" fill="#000072"/>
</g>
</g>
<path d="M12.7481 20.6551H18.7263C19.2278 20.6551 19.6998 20.4453 20.0212 20.0795C20.4365 19.6068 20.6413 18.9522 20.5557 18.3712C20.5055 18.0311 20.3562 17.7598 20.146 17.6271C19.4351 17.1782 18.8998 17.7004 18.8774 17.7228C18.8485 17.7518 18.8067 17.7647 18.766 17.7571C18.7254 17.7495 18.6913 17.7225 18.6751 17.6852C18.3737 16.9892 17.5545 16.7298 17.5463 16.7272C17.487 16.709 17.4507 16.6504 17.4613 16.5903C17.6986 15.2549 17.3067 14.0054 17.1567 13.596C16.7074 13.8845 15.1615 14.7478 12.7495 14.7478C10.3376 14.7478 8.79166 13.8845 8.34243 13.596C8.19238 14.0054 7.80051 15.2549 8.03774 16.5903C8.04842 16.6504 8.0121 16.709 7.95281 16.7272C7.94472 16.7298 7.12422 16.992 6.824 17.6852C6.80781 17.7225 6.77369 17.7495 6.73306 17.7571C6.69245 17.7647 6.65063 17.7518 6.62167 17.7228C6.5993 17.7007 6.05948 17.181 5.35313 17.6271C5.1429 17.7598 4.99356 18.0311 4.94344 18.3712C4.85783 18.9522 5.0626 19.6068 5.47786 20.0795C5.79932 20.4453 6.27129 20.6551 6.77278 20.6551H12.7481ZM18.7263 20.8984H6.77278C6.19922 20.8984 5.65888 20.6579 5.29035 20.2384C4.82958 19.7139 4.60272 18.9851 4.69831 18.3364C4.75959 17.9204 4.94458 17.5958 5.2192 17.4224C5.87276 17.0098 6.4242 17.2793 6.66653 17.4471C6.9739 16.8943 7.54421 16.6232 7.77696 16.5317C7.51776 14.8762 8.14218 13.4223 8.16942 13.36C8.18444 13.3256 8.21471 13.3 8.2515 13.2904C8.28834 13.2808 8.32753 13.2884 8.35789 13.311C8.37393 13.3228 10.0033 14.5045 12.7495 14.5045C15.4957 14.5045 17.1252 13.3228 17.1413 13.3109C17.1717 13.2884 17.211 13.2809 17.2477 13.2905C17.2844 13.3001 17.3147 13.3257 17.3297 13.36C17.3569 13.4223 17.9813 14.8762 17.7221 16.5317C17.9549 16.6232 18.5252 16.8943 18.8326 17.4471C19.0748 17.2793 19.6263 17.0097 20.2799 17.4224C20.5545 17.5958 20.7395 17.9204 20.8008 18.3364C20.8964 18.9851 20.6695 19.7139 20.2087 20.2384C19.8402 20.6579 19.2999 20.8984 18.7263 20.8984Z" fill="#000072"/>
<path d="M6.77996 17.5406C6.79354 17.5497 6.79988 17.5547 6.80924 17.5615C6.81812 17.568 6.82528 17.5741 6.83338 17.5805C6.84947 17.5933 6.86307 17.6067 6.87764 17.62C6.89256 17.633 6.90485 17.6474 6.91825 17.6613C6.93174 17.6752 6.9444 17.6895 6.95627 17.7042C7.00561 17.7623 7.04711 17.8249 7.0841 17.8896C7.15825 18.0189 7.20752 18.1583 7.24176 18.2987C7.27515 18.4397 7.28748 18.5828 7.2875 18.7241C7.28776 18.7947 7.27974 18.8651 7.27484 18.9347C7.26417 19.0043 7.25251 19.0732 7.23769 19.1412C7.23486 19.1541 7.22186 19.1624 7.20866 19.1596C7.19863 19.1575 7.19137 19.1496 7.18969 19.1403L7.1894 19.1386C7.17727 19.0703 7.16971 19.003 7.16059 18.9363L7.14284 18.837C7.13635 18.8042 7.13392 18.7711 7.12504 18.7389C7.10839 18.6744 7.09948 18.6092 7.07849 18.5469C7.06934 18.5156 7.06217 18.4838 7.05221 18.453L7.02027 18.3614C6.97621 18.2406 6.92239 18.1251 6.85754 18.0183C6.84066 17.9921 6.82485 17.965 6.80651 17.9402L6.77998 17.9022L6.75154 17.8661C6.73351 17.8411 6.71259 17.8192 6.69301 17.7967C6.68291 17.786 6.67289 17.7745 6.66271 17.7649C6.65781 17.7601 6.65258 17.7543 6.64797 17.75C6.64384 17.7461 6.63709 17.7399 6.63663 17.739L6.6099 17.6863C6.5812 17.6297 6.60466 17.5609 6.66231 17.5327C6.70137 17.5136 6.74624 17.5181 6.77996 17.5406Z" fill="#000072"/>
<path d="M18.8569 17.739C18.8565 17.7399 18.8497 17.7461 18.8456 17.75C18.841 17.7543 18.8357 17.7601 18.8308 17.765C18.8207 17.7745 18.8106 17.786 18.8005 17.7967C18.781 17.8192 18.7601 17.8411 18.742 17.8661L18.7136 17.9022L18.6871 17.9402C18.6687 17.965 18.6529 17.9921 18.636 18.0183C18.5712 18.1251 18.5173 18.2406 18.4733 18.3614L18.4414 18.453C18.4314 18.4838 18.4242 18.5156 18.4151 18.5469C18.3941 18.6092 18.3852 18.6744 18.3685 18.7389C18.3596 18.7711 18.3572 18.8042 18.3507 18.837L18.333 18.9363C18.3239 19.003 18.3163 19.0703 18.3042 19.1386L18.3039 19.1403C18.3015 19.1533 18.2889 19.1621 18.2756 19.1598C18.2655 19.1581 18.2579 19.1505 18.2559 19.1412C18.2411 19.0732 18.2294 19.0043 18.2187 18.9347C18.2138 18.8651 18.2058 18.7947 18.2061 18.7241C18.2061 18.5828 18.2184 18.4397 18.2518 18.2987C18.2861 18.1583 18.3353 18.0189 18.4095 17.8896C18.4465 17.8249 18.4879 17.7623 18.5373 17.7042C18.5492 17.6895 18.5618 17.6752 18.5753 17.6613C18.5887 17.6474 18.601 17.633 18.6159 17.62C18.6305 17.6067 18.6441 17.5933 18.6602 17.5805C18.6683 17.5741 18.6755 17.568 18.6843 17.5615C18.6937 17.5547 18.7 17.5497 18.7136 17.5406C18.7668 17.505 18.8394 17.5185 18.8756 17.5707C18.9002 17.6062 18.9018 17.6503 18.8837 17.6862L18.8569 17.739Z" fill="#000072"/>
<path d="M8.03948 16.5968L8.04957 16.694L8.06218 16.8027C8.06662 16.8398 8.07253 16.8769 8.07578 16.916C8.07942 16.9549 8.08157 16.9952 8.07956 17.0387L8.07956 17.0389C8.07924 17.0458 8.07334 17.0511 8.06636 17.0508C8.06386 17.0506 8.06157 17.0498 8.05967 17.0485C8.02328 17.0233 7.99197 16.9945 7.96487 16.963C7.93712 16.9318 7.91442 16.8977 7.89227 16.8627C7.87062 16.8275 7.85091 16.791 7.83375 16.7527C7.82568 16.7334 7.81731 16.7139 7.81082 16.6934C7.80731 16.6833 7.80414 16.6729 7.80131 16.6622C7.79825 16.6506 7.7962 16.6421 7.79355 16.6257C7.7828 16.5593 7.82889 16.4969 7.89648 16.4864C7.96407 16.4758 8.02758 16.5211 8.03831 16.5875C8.03866 16.5896 8.03894 16.5918 8.03917 16.5939L8.03948 16.5968Z" fill="#000072"/>
<path d="M17.7087 16.6257C17.706 16.6421 17.704 16.6506 17.7009 16.6622C17.6981 16.6729 17.6949 16.6833 17.6914 16.6935C17.6849 16.7139 17.6765 16.7334 17.6685 16.7527C17.6513 16.791 17.6316 16.8276 17.6099 16.8627C17.5878 16.8977 17.5651 16.9318 17.5373 16.963C17.5102 16.9945 17.4789 17.0234 17.4425 17.0485C17.4368 17.0525 17.429 17.0511 17.425 17.0455C17.4235 17.0435 17.4228 17.0412 17.4227 17.0389L17.4226 17.0387C17.4206 16.9952 17.4228 16.9549 17.4264 16.916C17.4297 16.8769 17.4356 16.8398 17.44 16.8027L17.4526 16.694L17.4627 16.5968L17.463 16.5943C17.4699 16.5274 17.5308 16.4787 17.5988 16.4855C17.6669 16.4923 17.7165 16.5521 17.7096 16.619C17.7093 16.6211 17.709 16.6236 17.7087 16.6257Z" fill="#000072"/>
<path d="M8.63874 17.8045C8.63874 17.8045 8.0718 17.3727 7.91487 16.6132C7.91487 16.6132 7.5887 16.4513 7.36328 16.8894C7.36328 16.8894 7.62332 18.2269 8.88868 18.875C8.88868 18.875 8.70583 18.1865 8.63874 17.8045Z" fill="#0096F2"/>
<path d="M7.49413 16.9063C7.5452 17.1105 7.8202 18.0431 8.69545 18.6205C8.64007 18.3998 8.56667 18.0948 8.52458 17.869C8.39328 17.7573 7.96596 17.353 7.80897 16.7065C7.73768 16.6944 7.60933 16.7085 7.49413 16.9063ZM8.88849 18.9961C8.86893 18.9961 8.84929 18.9915 8.83124 18.9823C7.52775 18.3146 7.25254 16.9687 7.24146 16.9117C7.23633 16.8853 7.24023 16.858 7.25259 16.834C7.39339 16.5604 7.57751 16.4828 7.70717 16.4659C7.85064 16.4471 7.95871 16.4982 7.97055 16.5041C8.00439 16.5209 8.02853 16.552 8.03607 16.5885C8.18139 17.2918 8.70934 17.7039 8.71465 17.708C8.73887 17.7266 8.75539 17.7535 8.76061 17.7833C8.82604 18.1558 9.00653 18.8369 9.00834 18.8437C9.02069 18.8903 9.00396 18.9396 8.96566 18.9696C8.94328 18.9871 8.91597 18.9961 8.88849 18.9961Z" fill="#000072"/>
<path d="M16.8632 17.8045C16.8632 17.8045 17.4302 17.3727 17.5871 16.6132C17.5871 16.6132 17.9133 16.4513 18.1387 16.8894C18.1387 16.8894 17.8786 18.2269 16.6133 18.875C16.6133 18.875 16.7961 18.1865 16.8632 17.8045Z" fill="#0096F2"/>
<path d="M16.9761 17.869C16.934 18.0948 16.8606 18.3998 16.8052 18.6206C17.6804 18.0431 17.9554 17.1107 18.0065 16.9062C17.9367 16.7862 17.8542 16.7192 17.7609 16.7071C17.7347 16.7037 17.7108 16.7051 17.6913 16.7081C17.534 17.3537 17.1073 17.7573 16.9761 17.869ZM16.6121 18.9961C16.5847 18.9961 16.5574 18.9871 16.535 18.9696C16.4967 18.9396 16.4799 18.8903 16.4923 18.8437C16.4941 18.8369 16.6746 18.1558 16.74 17.7833C16.7453 17.7534 16.7617 17.7266 16.786 17.708C16.7913 17.7039 17.3192 17.2918 17.4646 16.5885C17.4721 16.552 17.4962 16.5209 17.5301 16.5041C17.5419 16.4982 17.65 16.4471 17.7935 16.4659C17.9231 16.4828 18.1072 16.5604 18.248 16.834C18.2604 16.858 18.2643 16.8853 18.2592 16.9117C18.2481 16.9687 17.9729 18.3146 16.6694 18.9823C16.6513 18.9915 16.6317 18.9961 16.6121 18.9961Z" fill="#000072"/>
<path d="M10.3477 14.6971C10.3477 14.6971 10.5605 15.2898 10.4993 16.1545L11.2006 16.7539C11.2006 16.7539 11.3839 15.7092 11.0717 14.8416L10.3477 14.6971Z" fill="#0096F2"/>
<path d="M10.6246 16.1016L11.1041 16.5115C11.1366 16.1781 11.1643 15.5245 10.975 14.9463L10.5195 14.8554C10.5784 15.096 10.6569 15.5386 10.6246 16.1016ZM11.1985 16.875C11.169 16.875 11.14 16.8647 11.1172 16.8451L10.4158 16.2457C10.3865 16.2207 10.3709 16.1836 10.3736 16.1455C10.4321 15.3192 10.2307 14.7426 10.2286 14.7369C10.2139 14.6956 10.2229 14.6497 10.2522 14.6167C10.2815 14.5837 10.3266 14.5689 10.3701 14.5774L11.0942 14.7218C11.1369 14.7303 11.1718 14.7602 11.1863 14.8005C11.5056 15.6879 11.3282 16.7301 11.3205 16.774C11.3129 16.8173 11.2821 16.8532 11.24 16.8679C11.2265 16.8727 11.2124 16.875 11.1985 16.875Z" fill="#000072"/>
<path d="M15.1535 14.6971C15.1535 14.6971 14.9406 15.2898 15.0019 16.1545L14.3005 16.7539C14.3005 16.7539 14.1172 15.7092 14.4294 14.8416L15.1535 14.6971Z" fill="#0096F2"/>
<path d="M14.5246 14.9463C14.3349 15.5256 14.3627 16.1786 14.3953 16.5116L14.875 16.1016C14.8427 15.5386 14.9212 15.096 14.9801 14.8554L14.5246 14.9463ZM14.3011 16.875C14.2872 16.875 14.2732 16.8727 14.2596 16.8679C14.2175 16.8532 14.1867 16.8173 14.1791 16.774C14.1714 16.7301 13.994 15.6879 14.3133 14.8005C14.3278 14.7602 14.3627 14.7303 14.4054 14.7218L15.1295 14.5774C15.1732 14.5685 15.2183 14.5837 15.2475 14.6167C15.2768 14.6498 15.2857 14.6957 15.2709 14.737C15.2677 14.7461 15.0677 15.3217 15.126 16.1455C15.1287 16.1836 15.1131 16.2207 15.0838 16.2457L14.3824 16.8451C14.3595 16.8647 14.3306 16.875 14.3011 16.875Z" fill="#000072"/>
<path d="M12.0505 20.3967C11.8741 21.2479 10.868 21.6374 10.1611 21.1156C9.60768 20.7075 9 19.7742 8.62454 17.7274C8.58881 17.5313 8.55488 17.3246 8.52344 17.1074L8.76244 16.8849L10.3468 15.409C10.3468 15.409 11.9076 17.7825 12.0805 19.6019V19.6022C12.1077 19.884 12.1013 20.1524 12.0505 20.3967Z" fill="#B11313"/>
<g opacity="0.300003">
<g opacity="0.300003">
<path opacity="0.300003" d="M12.0501 20.3967C11.8736 21.2479 10.8676 21.6374 10.1606 21.1156C9.60724 20.7075 8.99956 19.7742 8.62409 17.7274C8.09573 17.4148 7.91425 16.6109 7.91425 16.6109C7.68632 15.5434 7.94926 14.5595 7.94926 14.5595C7.89922 15.8588 8.42424 16.4786 8.64079 16.6775C8.70113 16.7329 8.7433 16.8044 8.76168 16.8836C8.76178 16.884 8.76188 16.8845 8.76199 16.8849C9.14889 18.5664 9.79693 20.6149 10.7372 20.7616C11.645 20.903 12.0362 19.7415 12.0801 19.6022C12.1072 19.884 12.1008 20.1524 12.0501 20.3967Z" fill="#000072"/>
</g>
</g>
<path d="M10.4832 15.2967C10.6636 15.4897 10.8063 15.705 10.9356 15.9274C10.9998 16.0388 11.0583 16.1532 11.1165 16.2677C11.1747 16.3823 11.2317 16.4974 11.2872 16.6133C11.5095 17.0765 11.712 17.5502 11.8802 18.0384C12.0485 18.5259 12.184 19.0297 12.2335 19.5541C12.2572 19.8159 12.2587 20.0838 12.2134 20.352C12.2036 20.4179 12.1893 20.4885 12.1672 20.5566C12.1472 20.6251 12.1188 20.6912 12.0881 20.7561C12.024 20.8846 11.9386 21.0031 11.8367 21.1057C11.6308 21.3087 11.3588 21.4456 11.0699 21.4859C10.9259 21.508 10.778 21.5032 10.6344 21.4782C10.491 21.4514 10.3524 21.4008 10.2258 21.3312C10.1639 21.2952 10.1015 21.2556 10.0477 21.212L9.96693 21.147C9.93967 21.1256 9.91626 21.1008 9.8908 21.0778C9.86621 21.0541 9.84003 21.0316 9.81686 21.0068L9.74779 20.9321C9.70012 20.8834 9.66059 20.8292 9.6178 20.7773C9.45247 20.5655 9.32061 20.3352 9.20484 20.1004C9.0872 19.8658 8.99726 19.6219 8.91014 19.378C8.8293 19.1323 8.75566 18.8849 8.69509 18.6349C8.66515 18.5099 8.633 18.3854 8.60857 18.2595C8.58341 18.1337 8.55326 18.0087 8.53497 17.8819C8.49446 17.6289 8.47545 17.3723 8.49773 17.1122C8.49899 17.0974 8.51215 17.0865 8.52713 17.0878C8.53757 17.0886 8.54613 17.0952 8.54993 17.104L8.55026 17.1048C8.60175 17.2257 8.6407 17.3477 8.67429 17.4704C8.70737 17.5931 8.74165 17.7151 8.76763 17.8385C8.79247 17.9623 8.82158 18.0848 8.84899 18.2078C8.87502 18.3311 8.90856 18.4523 8.93985 18.5741C9.00313 18.8176 9.07886 19.057 9.16095 19.2935C9.24898 19.5273 9.33943 19.7608 9.45445 19.9805C9.56711 20.2011 9.69561 20.4127 9.84661 20.6034C9.88561 20.6497 9.92179 20.699 9.96445 20.7415L10.0262 20.8074C10.0469 20.8293 10.0699 20.8483 10.0916 20.869C10.1139 20.8887 10.1346 20.9108 10.1582 20.9287L10.2279 20.9839C10.2741 21.0209 10.3213 21.0496 10.3706 21.0782C10.4702 21.1316 10.5774 21.1698 10.6883 21.1897C10.7993 21.2077 10.9135 21.2112 11.025 21.1928C11.2489 21.1603 11.4595 21.051 11.6177 20.8936C11.6965 20.8145 11.7627 20.7233 11.8127 20.6239C11.8364 20.5736 11.8589 20.5225 11.8745 20.4688C11.892 20.4158 11.9031 20.3616 11.9122 20.3018C11.9523 20.0685 11.9527 19.8242 11.9311 19.5805C11.9091 19.3365 11.865 19.0923 11.8079 18.8501C11.7511 18.6078 11.6802 18.3675 11.6013 18.1295C11.443 17.6531 11.2496 17.1861 11.0358 16.7281C10.9824 16.6135 10.9276 16.4996 10.8715 16.3862C10.8158 16.2726 10.7571 16.1605 10.7027 16.0462C10.5928 15.8181 10.4894 15.5862 10.4077 15.3411L10.4074 15.3403C10.3997 15.3171 10.4126 15.2922 10.4362 15.2846C10.4534 15.2791 10.4717 15.2844 10.4832 15.2967Z" fill="#000072"/>
<path d="M8.97154 19.2676C8.93818 19.2676 8.90492 19.2545 8.88052 19.2285C8.83415 19.1791 8.83722 19.1023 8.88741 19.0567C8.93335 19.015 10.0319 18.0334 11.7137 17.9099C11.7817 17.9045 11.8413 17.9552 11.8465 18.0221C11.8516 18.0891 11.8004 18.1475 11.7322 18.1525C10.1396 18.2695 9.06615 19.2257 9.05549 19.2354C9.03168 19.2569 9.00156 19.2676 8.97154 19.2676Z" fill="#000072"/>
<path d="M13.4501 20.3967C13.6266 21.2479 14.6326 21.6374 15.3396 21.1156C15.893 20.7075 16.5007 19.7742 16.8761 17.7274C16.9118 17.5313 16.9458 17.3246 16.9772 17.1074L16.7382 16.8849L15.1538 15.409C15.1538 15.409 13.593 17.7825 13.4201 19.6019V19.6022C13.393 19.884 13.3994 20.1524 13.4501 20.3967Z" fill="#B11313"/>
<g opacity="0.300003">
<g opacity="0.300003">
<path opacity="0.300003" d="M13.4462 20.3967C13.6227 21.2479 14.6287 21.6374 15.3357 21.1156C15.8891 20.7075 16.4967 19.7742 16.8722 17.7274C17.4006 17.4148 17.5821 16.6109 17.5821 16.6109C17.81 15.5434 17.5471 14.5595 17.5471 14.5595C17.5971 15.8588 17.0721 16.4786 16.8555 16.6775C16.7952 16.7329 16.753 16.8044 16.7346 16.8836C16.7345 16.884 16.7344 16.8845 16.7343 16.8849C16.3474 18.5664 15.6994 20.6149 14.7591 20.7616C13.8513 20.903 13.4601 19.7415 13.4162 19.6022C13.3891 19.884 13.3955 20.1524 13.4462 20.3967Z" fill="#000072"/>
</g>
</g>
<path d="M15.0931 15.3411C15.0114 15.5862 14.908 15.8181 14.7981 16.0462C14.7437 16.1605 14.685 16.2726 14.6293 16.3862C14.5732 16.4996 14.5184 16.6135 14.465 16.7281C14.2512 17.1861 14.0578 17.6531 13.8995 18.1295C13.8206 18.3675 13.7496 18.6078 13.6929 18.8501C13.6358 19.0923 13.5917 19.3365 13.5697 19.5805C13.5481 19.8242 13.5485 20.0685 13.5886 20.3018C13.5976 20.3616 13.6088 20.4158 13.6263 20.4688C13.6418 20.5225 13.6644 20.5736 13.6881 20.6239C13.7381 20.7233 13.8043 20.8145 13.8831 20.8936C14.0413 21.051 14.2519 21.1603 14.4758 21.1928C14.5873 21.2112 14.7015 21.2077 14.8125 21.1897C14.9233 21.1698 15.0306 21.1316 15.1301 21.0781C15.1795 21.0496 15.2267 21.0209 15.2729 20.9839L15.3426 20.9287C15.3662 20.9108 15.3869 20.8887 15.4092 20.869C15.4309 20.8483 15.4539 20.8293 15.4745 20.8074L15.5363 20.7415C15.579 20.699 15.6152 20.6497 15.6542 20.6034C15.8052 20.4127 15.9337 20.2011 16.0463 19.9805C16.1614 19.7608 16.2518 19.5273 16.3398 19.2935C16.4219 19.057 16.4977 18.8176 16.5609 18.5741C16.5922 18.4523 16.6258 18.3311 16.6518 18.2078C16.6792 18.0848 16.7083 17.9623 16.7332 17.8385C16.7591 17.7151 16.7934 17.5931 16.8265 17.4704C16.8601 17.3477 16.899 17.2257 16.9505 17.1048L16.9508 17.1041C16.9566 17.0905 16.9726 17.084 16.9864 17.0897C16.9961 17.0937 17.0022 17.1026 17.0031 17.1122C17.0253 17.3723 17.0063 17.6288 16.9658 17.8819C16.9475 18.0087 16.9174 18.1337 16.8922 18.2594C16.8678 18.3854 16.8356 18.5099 16.8057 18.6349C16.7451 18.8849 16.6715 19.1323 16.5907 19.378C16.5035 19.6219 16.4136 19.8658 16.2959 20.1004C16.1802 20.3352 16.0483 20.5655 15.883 20.7773C15.8402 20.8292 15.8007 20.8834 15.753 20.9321L15.6839 21.0068C15.6608 21.0316 15.6346 21.0541 15.61 21.0778C15.5845 21.1008 15.5611 21.1256 15.5339 21.147L15.4531 21.212C15.3993 21.2556 15.3369 21.2952 15.275 21.3312C15.1483 21.4008 15.0098 21.4514 14.8664 21.4782C14.7228 21.5032 14.5749 21.508 14.4309 21.4859C14.142 21.4456 13.87 21.3087 13.6641 21.1057C13.5622 21.0031 13.4768 20.8846 13.4127 20.7561C13.382 20.6912 13.3536 20.6251 13.3336 20.5566C13.3115 20.4886 13.2972 20.4179 13.2874 20.352C13.2421 20.0838 13.2436 19.8159 13.2673 19.5541C13.3167 19.0296 13.4523 18.5259 13.6206 18.0384C13.7888 17.5502 13.9912 17.0765 14.2136 16.6133C14.2691 16.4974 14.3261 16.3822 14.3843 16.2677C14.4424 16.1532 14.501 16.0388 14.5652 15.9274C14.6945 15.705 14.8372 15.4897 15.0176 15.2967C15.0343 15.2788 15.0628 15.2776 15.081 15.2941C15.0944 15.3061 15.0986 15.3243 15.0934 15.3403L15.0931 15.3411Z" fill="#000072"/>
<path d="M16.5296 19.2676C16.4995 19.2676 16.4694 19.2569 16.4456 19.2353C16.4349 19.2257 15.3615 18.2694 13.7689 18.1525C13.7007 18.1475 13.6496 18.0891 13.6546 18.0221C13.6597 17.9551 13.7193 17.9045 13.7874 17.9098C15.4692 18.0333 16.5678 19.0149 16.6137 19.0566C16.6639 19.1022 16.667 19.1792 16.6206 19.2285C16.5961 19.2545 16.5629 19.2676 16.5296 19.2676Z" fill="#000072"/>
<path d="M12.7521 14.2351C15.991 14.2351 17.277 12.8453 17.277 12.8453C17.277 12.8453 17.331 12.965 17.3573 13.1351C17.4008 13.4167 17.279 13.6992 17.0472 13.8703C16.5375 14.2463 15.2398 14.9629 12.7504 14.9629C10.2609 14.9629 8.96322 14.2463 8.45358 13.8703C8.22174 13.6992 8.09999 13.4167 8.14348 13.1351C8.16975 12.965 8.22371 12.8453 8.22371 12.8453C8.22371 12.8453 9.50976 14.2351 12.7487 14.2351" fill="#751313"/>
<g opacity="0.300003">
<g opacity="0.300003">
<path opacity="0.300003" d="M17.3464 13.0699C17.3047 13.2465 17.2004 13.407 17.0481 13.5194C16.5385 13.8954 15.2408 14.612 12.7513 14.612C10.2619 14.612 8.96419 13.8954 8.45456 13.5194C8.30231 13.407 8.19797 13.2465 8.15629 13.0699C8.15199 13.0906 8.14797 13.1124 8.14446 13.1351C8.10096 13.4167 8.22271 13.6992 8.45456 13.8703C8.96419 14.2463 10.2619 14.9629 12.7513 14.9629C15.2408 14.9629 16.5385 14.2463 17.0481 13.8703C17.28 13.6992 17.4017 13.4167 17.3582 13.1351C17.3547 13.1124 17.3507 13.0906 17.3464 13.0699Z" fill="#000072"/>
</g>
</g>
<path d="M12.7503 15.0859C10.2642 15.0859 8.94448 14.3861 8.37911 13.9689C8.10804 13.7688 7.97079 13.4429 8.02094 13.1183C8.04936 12.9341 8.10788 12.803 8.11036 12.7975C8.12733 12.7599 8.16248 12.7332 8.20382 12.7266C8.24509 12.72 8.28706 12.7345 8.31525 12.7649C8.32767 12.7782 9.61154 14.1148 12.7486 14.1148V14.3581C10.0693 14.3581 8.71014 13.4298 8.28252 13.0683C8.27635 13.095 8.27058 13.1239 8.26581 13.1547C8.22937 13.3907 8.32978 13.6282 8.52789 13.7744C9.06855 14.1733 10.3361 14.8426 12.7503 14.8426C15.1645 14.8426 16.432 14.1733 16.9727 13.7744C17.1708 13.6282 17.2712 13.3908 17.2347 13.1547C17.23 13.1239 17.2242 13.095 17.218 13.0683C16.7904 13.4298 15.4313 14.3581 12.7519 14.3581V14.1148C15.8997 14.1148 17.1728 12.7784 17.1853 12.7649C17.2135 12.7345 17.2554 12.7201 17.2967 12.7266C17.3381 12.7332 17.3732 12.7599 17.3902 12.7975C17.3927 12.803 17.4512 12.9341 17.4796 13.1183C17.5297 13.4429 17.3925 13.7689 17.1215 13.9689C16.5561 14.3861 15.2364 15.0859 12.7503 15.0859Z" fill="#000072"/>
<path d="M8.22852 13.8746L10.2256 18.3398" stroke="#000072" stroke-width="0.2" stroke-miterlimit="10"/>
<path d="M15.1924 18.3398L17.2318 13.8746" stroke="#000072" stroke-width="0.2" stroke-miterlimit="10"/>
<path fill-rule="evenodd" clip-rule="evenodd" d="M12.6039 15.696C12.603 15.7068 12.5964 15.7164 12.592 15.727C12.5877 15.7372 12.5838 15.7482 12.5801 15.759C12.5704 15.787 12.5614 15.8146 12.5622 15.8509C12.5951 15.8552 12.6367 15.852 12.6664 15.8479C12.6826 15.855 12.693 15.866 12.708 15.8739C12.7052 15.8603 12.7187 15.8577 12.7304 15.8539C12.7252 15.8597 12.7172 15.8637 12.7199 15.8749C12.7267 15.8779 12.7278 15.8699 12.7333 15.8689C12.741 15.8747 12.7507 15.8744 12.7586 15.8689C12.7643 15.8697 12.7628 15.8754 12.769 15.8759C12.7779 15.8681 12.7653 15.8597 12.7616 15.8539C12.7726 15.8578 12.7852 15.8607 12.7839 15.8729C12.7959 15.8679 12.8106 15.8561 12.8226 15.8479C12.8536 15.8523 12.8932 15.8543 12.9297 15.8519C12.9285 15.7911 12.9065 15.7442 12.8851 15.697C12.891 15.6965 12.891 15.7018 12.8925 15.704C12.9147 15.7362 12.9344 15.7729 12.9506 15.8119C12.9529 15.8176 12.9569 15.8253 12.9595 15.8329C12.9618 15.8396 12.9666 15.8511 12.9655 15.8549C12.9629 15.8631 12.9428 15.8658 12.9387 15.8729C12.9263 15.863 12.8906 15.8659 12.8568 15.8649C12.8473 15.8646 12.8344 15.8627 12.8286 15.8639C12.8156 15.8664 12.8099 15.8791 12.8033 15.8859C12.8216 15.8867 12.8361 15.8748 12.8524 15.8739C12.8627 15.8733 12.8778 15.8785 12.891 15.8809C12.9294 15.8877 12.9722 15.8934 13.0071 15.9008C13.0092 15.8205 12.9785 15.7535 12.9372 15.699C12.9782 15.737 13.0059 15.7816 13.0265 15.8339C13.03 15.8429 13.0331 15.8516 13.0354 15.8609C13.0387 15.874 13.0388 15.8901 13.0488 15.8998C13.0364 15.9089 13.0216 15.9162 13.0086 15.9248C12.972 15.9102 12.9014 15.8891 12.842 15.8928C12.8277 15.8938 12.8151 15.8985 12.8048 15.9048C12.8229 15.9097 12.8355 15.9102 12.8598 15.9098C12.8658 15.9097 12.8746 15.9081 12.8792 15.9088C12.8843 15.9097 12.8926 15.9169 12.9 15.9218C12.943 15.9507 12.9814 15.9718 13.0324 15.9948C13.0484 16.0019 13.0573 16.0092 13.0756 15.9998C13.0786 16.0946 13.0411 16.1646 12.9952 16.2286C12.9899 16.236 12.9865 16.2447 12.9774 16.2506C13.0119 16.1959 13.0384 16.1309 13.0384 16.0547C13.0384 16.0467 13.0406 16.0368 13.0384 16.0297C13.0351 16.0198 13.0117 16.0091 12.9982 16.0008C12.9597 15.9769 12.9292 15.9602 12.8866 15.9378C12.8783 15.9334 12.8712 15.9275 12.8643 15.9258C12.857 15.9241 12.8456 15.9237 12.8375 15.9228C12.8273 15.9217 12.8176 15.9215 12.8092 15.9208C12.8257 15.9327 12.8518 15.9474 12.8747 15.9588C12.8789 15.9613 12.8832 15.9579 12.8881 15.9578C12.8935 16.0692 12.8812 16.1783 12.8345 16.2595C12.8234 16.2789 12.811 16.298 12.7914 16.3125C12.8548 16.2356 12.8596 16.1035 12.8464 15.9878C12.8599 15.9799 12.854 15.9734 12.842 15.9638C12.8287 15.9533 12.8053 15.938 12.7899 15.9328C12.7888 15.938 12.7914 15.9431 12.7943 15.9478C12.7972 15.9525 12.8037 15.9566 12.8048 15.9608C12.807 15.9697 12.8016 15.9894 12.7988 15.9998C12.7896 16.0342 12.7702 16.0721 12.7527 16.0977C12.7465 16.0972 12.7508 16.0896 12.7467 16.0877C12.7401 16.0879 12.7441 16.0953 12.7408 16.0977C12.7203 16.0742 12.7028 16.0354 12.6931 15.9998C12.6897 15.987 12.6844 15.9717 12.6872 15.9608C12.6895 15.9521 12.7034 15.9442 12.7021 15.9338C12.6885 15.9359 12.6758 15.945 12.6649 15.9528C12.654 15.9606 12.6428 15.9689 12.6351 15.9778C12.636 15.9822 12.6424 15.9829 12.644 15.9868C12.6343 16.1039 12.6346 16.2357 12.7006 16.3115C12.6936 16.3109 12.6904 16.3049 12.6872 16.3015C12.6258 16.2355 12.6093 16.1338 12.6024 16.0287C12.6009 16.0055 12.5993 15.9828 12.6039 15.9598C12.6051 15.955 12.6128 15.9621 12.6173 15.9588C12.6407 15.9469 12.6619 15.9335 12.6842 15.9208C12.6648 15.9228 12.6437 15.9222 12.6262 15.9268C12.611 15.9308 12.5944 15.942 12.5801 15.9498C12.5364 15.9737 12.4904 15.9996 12.4536 16.0267C12.4461 16.1159 12.4765 16.1877 12.5131 16.2506C12.4603 16.1814 12.4113 16.1045 12.4164 15.9998C12.4365 16.0126 12.4672 15.9917 12.4833 15.9838C12.5284 15.9616 12.5765 15.9331 12.6113 15.9088C12.6365 15.9113 12.6661 15.9093 12.6872 15.9058C12.6609 15.8833 12.5935 15.8946 12.5533 15.9028C12.5263 15.9084 12.5011 15.9163 12.4848 15.9248C12.4694 15.9179 12.4576 15.9085 12.4432 15.9008C12.4537 15.8831 12.456 15.8532 12.464 15.8329C12.4837 15.7833 12.5144 15.7394 12.5518 15.699C12.5508 15.7067 12.5429 15.7133 12.5384 15.72C12.5058 15.7687 12.4843 15.8291 12.4833 15.8998C12.5177 15.8946 12.5588 15.8882 12.5994 15.8809C12.6127 15.8785 12.6264 15.8736 12.6366 15.8739C12.6531 15.8743 12.6687 15.8857 12.6872 15.8859C12.6828 15.8765 12.6744 15.8698 12.6649 15.8639C12.6342 15.8662 12.6 15.8625 12.5726 15.8659C12.5698 15.8662 12.5662 15.8673 12.5622 15.8689C12.5626 15.8687 12.5534 15.8729 12.5548 15.8729C12.5486 15.8728 12.5335 15.8584 12.5265 15.8569C12.5408 15.7955 12.5731 15.7463 12.6039 15.696Z" fill="#000072"/>
<path fill-rule="evenodd" clip-rule="evenodd" d="M12.751 15.0833V16.8086V15.0833Z" fill="#000072"/>
<path d="M12.751 15.0833V16.8086" stroke="#000072" stroke-width="0.2" stroke-miterlimit="10"/>
<path d="M12.2021 15.0728C12.2021 15.0728 12.2986 16.4861 12.1572 16.7363" stroke="#000072" stroke-width="0.2" stroke-miterlimit="10"/>
<path d="M11.7688 15.0449C11.7688 15.0449 11.9865 15.6988 11.6719 16.582" stroke="#000072" stroke-width="0.2" stroke-miterlimit="10"/>
<path d="M13.2508 15.0831C13.2508 15.0831 13.1498 16.3353 13.2958 16.7617" stroke="#000072" stroke-width="0.2" stroke-miterlimit="10"/>
<path d="M13.7655 15.0449C13.7655 15.0449 13.5347 16.2866 13.8774 16.582" stroke="#000072" stroke-width="0.2" stroke-miterlimit="10"/>
<path d="M11.3184 15.2925C11.3184 15.2925 11.5358 15.0887 11.8213 15.2925C11.8213 15.2925 11.9701 15.0902 12.2176 15.3203C12.2176 15.3203 12.3526 15.0684 12.7499 15.2925C12.7499 15.2925 12.9176 15.0819 13.2184 15.2925C13.2184 15.2925 13.4548 15.0587 13.7316 15.2809C13.7316 15.2809 13.9784 15.017 14.1921 15.2527" stroke="#000072" stroke-width="0.2" stroke-miterlimit="10"/>
<path d="M12.7188 15.6164C12.7111 15.611 12.7033 15.6059 12.6957 15.601C12.4251 15.4307 12.2287 15.6211 12.2287 15.6211C12.028 15.4164 11.8418 15.6211 11.8418 15.6211C11.5298 15.2635 11.3613 15.6211 11.3613 15.6211" stroke="#000072" stroke-width="0.2" stroke-miterlimit="10"/>
<path d="M12.7109 15.6221C12.7109 15.6221 12.9576 15.4278 13.2171 15.6221C13.2171 15.6221 13.4692 15.3816 13.6899 15.6328C13.6899 15.6328 14.0176 15.3852 14.1398 15.6278" stroke="#000072" stroke-width="0.2" stroke-miterlimit="10"/>
<path d="M11.3613 16.2191C11.3613 16.2191 11.5615 15.8952 11.7722 16.2466C11.7722 16.2466 12.1501 15.9902 12.2305 16.3483C12.2305 16.3483 12.5434 16.1921 12.7621 16.4492C12.7621 16.4492 12.9938 16.183 13.2622 16.3861C13.2622 16.3861 13.4414 15.979 13.7447 16.293C13.7447 16.293 13.9316 15.9536 14.1399 16.1472" stroke="#000072" stroke-width="0.2" stroke-miterlimit="10"/>
<path d="M11.3418 16.4136C11.3418 16.4136 11.6025 16.1539 11.7165 16.45C11.7165 16.45 12.0921 16.2832 12.1969 16.5832C12.1969 16.5832 12.585 16.3833 12.7465 16.7031C12.7465 16.7031 12.9761 16.4906 13.2521 16.635C13.2521 16.635 13.5058 16.2602 13.7995 16.4814C13.7995 16.4814 14.0084 16.1309 14.1334 16.3491" stroke="#000072" stroke-width="0.2" stroke-miterlimit="10"/>
<path d="M9.05469 19.235C9.05469 19.235 10.2102 18.0419 11.6708 18.1571L12.0029 19.1588C12.0029 19.1588 11.644 20.646 9.38149 20.1449L9.05469 19.235Z" fill="#000072"/>
<path d="M9.05469 19.235C9.05469 19.235 10.2102 18.0419 11.6708 18.1571L12.0029 19.1588C12.0029 19.1588 11.644 20.646 9.38149 20.1449L9.05469 19.235Z" stroke="#000072" stroke-width="0.2" stroke-miterlimit="10"/>
<path d="M13.4453 19.4041L13.7856 17.983L15.389 18.4618L16.3444 18.9946V19.4041L16.12 20.144C16.12 20.144 14.5148 20.663 13.4453 19.4041Z" fill="#000072"/>
<path d="M13.4453 19.4041L13.7856 17.983L15.389 18.4618L16.3444 18.9946V19.4041L16.12 20.144C16.12 20.144 14.5148 20.663 13.4453 19.4041Z" stroke="#000072" stroke-width="0.2" stroke-miterlimit="10"/>
<path d="M5.33008 17.5126L6.56446 20.6562" stroke="#000072" stroke-width="0.2" stroke-miterlimit="10"/>
<path d="M5.00977 17.9097C5.00977 17.9097 5.22306 19.3649 6.15413 20.6328" stroke="#000072" stroke-width="0.2" stroke-miterlimit="10"/>
<path d="M5.83105 17.3916C5.83105 17.3916 6.79518 18.9993 6.94413 20.6816" stroke="#000072" stroke-width="0.2" stroke-miterlimit="10"/>
<path d="M6.44922 17.5126C6.44922 17.5126 7.03395 18.6575 7.36362 20.6562" stroke="#000072" stroke-width="0.2" stroke-miterlimit="10"/>
<path d="M4.87891 18.5898C4.87891 18.5898 4.88134 18.2679 5.11437 18.3927C5.11437 18.3927 5.20109 17.8296 5.58199 18.1871C5.58199 18.1871 5.59641 17.6155 6.12873 17.9582C6.12873 17.9582 6.28056 17.5387 6.59942 17.9108C6.59942 17.9108 6.75756 17.825 6.85931 18.0185" stroke="#000072" stroke-width="0.2" stroke-miterlimit="10"/>
<path d="M5.04492 18.1055C5.04492 18.1055 5.12665 17.6891 5.45198 17.827C5.45198 17.827 5.51639 17.4847 5.94541 17.5985C5.94541 17.5985 6.00853 17.3747 6.51759 17.6608" stroke="#000072" stroke-width="0.2" stroke-miterlimit="10"/>
<path d="M4.92383 18.7598C4.92383 18.7598 4.94179 18.4371 5.19031 18.6616C5.19031 18.6616 5.26861 18.1029 5.7028 18.4629C5.7028 18.4629 5.71443 17.9159 6.21967 18.2251C6.21967 18.2251 6.40556 17.9196 6.72955 18.1857C6.72955 18.1857 6.78741 18.0267 6.94908 18.1857" stroke="#000072" stroke-width="0.2" stroke-miterlimit="10"/>
<path d="M4.92383 19.0352C4.92383 19.0352 5.02469 18.7249 5.30067 18.9942C5.30067 18.9942 5.46954 18.4876 5.83083 18.8305C5.83083 18.8305 5.97638 18.1542 6.41956 18.6187C6.41956 18.6187 6.48848 18.1771 6.84096 18.5038C6.84096 18.5038 6.86771 18.2327 7.05353 18.4504" stroke="#000072" stroke-width="0.2" stroke-miterlimit="10"/>
<path d="M5.00977 19.2695C5.00977 19.2695 5.10361 19.014 5.37706 19.1974C5.37706 19.1974 5.67437 18.794 5.94722 19.0829C5.94722 19.0829 6.24001 18.6487 6.5194 18.9787C6.5194 18.9787 6.66472 18.5713 6.95206 18.8549C6.95206 18.8549 7.05854 18.703 7.14455 18.8344" stroke="#000072" stroke-width="0.2" stroke-miterlimit="10"/>
<path d="M5.10742 19.5703C5.10742 19.5703 5.27271 19.2919 5.48402 19.4582C5.48402 19.4582 5.66919 19.1409 6.07269 19.4052C6.07269 19.4052 6.26471 18.9757 6.65982 19.3001C6.65982 19.3001 6.8027 18.9345 7.05283 19.266C7.05283 19.266 7.05378 18.9113 7.22889 19.0829" stroke="#000072" stroke-width="0.2" stroke-miterlimit="10"/>
<path d="M5.23047 19.9219V19.8326C5.23047 19.8326 5.34119 19.5069 5.60631 19.7193C5.60631 19.7193 5.88006 19.4112 6.16971 19.6489C6.16971 19.6489 6.46904 19.2641 6.73979 19.5709C6.73979 19.5709 6.90283 19.2345 7.14501 19.5696" stroke="#000072" stroke-width="0.2" stroke-miterlimit="10"/>
<path d="M5.43652 20.0312C5.43652 20.0312 5.44678 19.858 5.70943 19.922C5.70943 19.922 5.99096 19.7125 6.27089 19.9078C6.27089 19.9078 6.46839 19.5638 6.80356 19.8246C6.80356 19.8246 7.03565 19.5564 7.19446 19.7835" stroke="#000072" stroke-width="0.2" stroke-miterlimit="10"/>
<path d="M5.58203 20.248C5.58203 20.248 5.6835 20.0965 5.86915 20.204C5.86915 20.204 6.1102 19.9743 6.37187 20.1654C6.37187 20.1654 6.5539 19.8945 6.86012 20.0894C6.86012 20.0894 7.05429 19.8424 7.24811 20.0318" stroke="#000072" stroke-width="0.2" stroke-miterlimit="10"/>
<path d="M5.78223 20.4023C5.78223 20.4023 5.81407 20.2419 5.98822 20.3953C5.98822 20.3953 6.19166 20.267 6.44888 20.4023C6.44888 20.4023 6.72942 20.2296 6.90608 20.3656C6.90608 20.3656 7.13576 20.1961 7.28838 20.3579" stroke="#000072" stroke-width="0.2" stroke-miterlimit="10"/>
<path d="M6.07715 20.5154C6.07715 20.5154 6.21244 20.3759 6.51939 20.543C6.51939 20.543 6.68787 20.442 6.84218 20.4776C6.86423 20.4827 6.88598 20.4905 6.90692 20.5019" stroke="#000072" stroke-width="0.2" stroke-miterlimit="10"/>
<path d="M6.92773 20.543C6.92773 20.543 7.08381 20.4093 7.34894 20.5013" stroke="#000072" stroke-width="0.2" stroke-miterlimit="10"/>
<path d="M7.22957 19.0375C7.18299 19.1415 7.3637 20.7773 7.3637 20.7773H9.61769L9.5697 20.6563L9.05559 19.693L8.73379 18.7882C8.00458 18.6866 7.2888 17.0093 7.2888 17.0093L6.78125 17.5394L6.9065 17.8278L7.14413 18.3672L7.22957 19.0375Z" fill="#000072"/>
<path d="M20.0799 17.4365L18.9766 20.6562" stroke="#000072" stroke-width="0.2" stroke-miterlimit="10"/>
<path d="M20.3738 17.831C20.3738 17.831 20.1777 19.8856 19.2568 20.707" stroke="#000072" stroke-width="0.2" stroke-miterlimit="10"/>
<path d="M19.6538 17.4168C19.6538 17.4168 18.9066 19.1796 18.5518 20.6758" stroke="#000072" stroke-width="0.2" stroke-miterlimit="10"/>
<path d="M19.032 17.5726C19.032 17.5726 18.4882 18.5743 18.2061 20.8633" stroke="#000072" stroke-width="0.2" stroke-miterlimit="10"/>
<path d="M20.5555 18.3711C20.5555 18.3711 20.496 18.0863 20.3074 18.278C20.3074 18.278 20.2287 17.7689 19.8568 18.0832C19.8568 18.0832 19.7519 17.6493 19.4255 17.9828C19.4255 17.9828 19.1715 17.5681 18.8551 17.9828C18.8551 17.9828 18.7898 17.8778 18.6367 18.0159" stroke="#000072" stroke-width="0.2" stroke-miterlimit="10"/>
<path d="M20.5747 18.6602C20.5747 18.6602 20.5049 18.3807 20.2476 18.5881C20.2476 18.5881 20.0981 18.2379 19.7273 18.4625C19.7273 18.4625 19.6404 18.1078 19.255 18.3388C19.255 18.3388 19.1412 18.0688 18.7574 18.2607C18.7574 18.2607 18.6676 18.0899 18.5068 18.2758" stroke="#000072" stroke-width="0.2" stroke-miterlimit="10"/>
<path d="M20.5732 18.9961C20.5732 18.9961 20.4263 18.6952 20.1754 18.8901C20.1754 18.8901 19.9409 18.5638 19.6019 18.8244C19.6019 18.8244 19.4738 18.5062 19.1479 18.7234C19.1479 18.7234 18.9812 18.3727 18.6352 18.6206C18.6352 18.6206 18.5718 18.4356 18.3203 18.5889" stroke="#000072" stroke-width="0.2" stroke-miterlimit="10"/>
<path d="M20.5135 19.2676C20.5135 19.2676 20.4269 18.97 20.0844 19.2168C20.0844 19.2168 19.8509 18.8349 19.5024 19.1176C19.5024 19.1176 19.3517 18.7285 19.0323 19.0464C19.0323 19.0464 18.9316 18.7298 18.5513 18.9704C18.5513 18.9704 18.4956 18.7226 18.3333 18.9352C18.171 19.1478 18.2904 18.9312 18.2904 18.9312" stroke="#000072" stroke-width="0.2" stroke-miterlimit="10"/>
<path d="M20.4216 19.5625C20.4216 19.5625 20.2976 19.2303 19.9921 19.4911C19.9921 19.4911 19.801 19.2199 19.4085 19.3912C19.4085 19.3912 19.1713 19.1114 18.8961 19.3911C18.8961 19.3911 18.7088 19.1066 18.4628 19.3436C18.4628 19.3436 18.367 18.8768 18.1357 19.3279" stroke="#000072" stroke-width="0.2" stroke-miterlimit="10"/>
<path d="M20.2355 19.793C20.2355 19.793 20.2279 19.4895 19.8984 19.7336C19.8984 19.7336 19.6812 19.4359 19.2989 19.7158C19.2989 19.7158 19.0922 19.4095 18.8126 19.7332C18.8126 19.7332 18.6221 19.4363 18.3859 19.7237C18.3859 19.7237 18.3784 19.2288 18.0596 19.6168" stroke="#000072" stroke-width="0.2" stroke-miterlimit="10"/>
<path d="M20.078 20.0508C20.078 20.0508 20.0289 19.8852 19.7657 20.0131C19.7657 20.0131 19.4798 19.8022 19.1971 20.0077C19.1971 20.0077 19.034 19.7824 18.7354 19.9843C18.7354 19.9843 18.4897 19.7739 18.3209 19.9755C18.3209 19.9755 18.3358 19.5992 17.9775 19.8881" stroke="#000072" stroke-width="0.2" stroke-miterlimit="10"/>
<path d="M19.8884 20.2511C19.8884 20.2511 19.848 20.0641 19.6294 20.2511C19.6294 20.2511 19.3811 20.0872 19.1019 20.2852C19.1019 20.2852 18.8272 20.1142 18.6505 20.2852C18.6505 20.2852 18.4611 20.033 18.2607 20.2852C18.2607 20.2852 18.1994 19.952 18.0059 20.2266" stroke="#000072" stroke-width="0.2" stroke-miterlimit="10"/>
<path d="M19.7223 20.3462C19.7223 20.3462 19.6316 20.2647 19.5407 20.3827C19.5407 20.3827 19.1777 20.2779 19.0329 20.4883C19.0329 20.4883 18.8769 20.3214 18.5977 20.4883C18.5977 20.4883 18.4612 20.2418 18.2566 20.4883C18.2566 20.4883 18.1439 20.1606 17.9326 20.4883" stroke="#000072" stroke-width="0.2" stroke-miterlimit="10"/>
<path d="M16.8415 18.7608L17.5659 18.0751L18.1357 17.1258L18.2063 16.9151L18.6845 17.4356L18.722 17.6942L18.4628 17.9832L18.3213 18.3384L18.261 18.7608V18.9877L18.2561 19.1391C18.2561 19.1391 18.0087 20.2845 18.1357 20.7353L15.9294 20.7891L15.8574 20.6554L16.2178 19.9679L16.6133 19.0557L16.8415 18.7608Z" fill="#000072"/>
<path d="M16.4376 14.3162C16.4376 14.3162 14.6719 17.6815 14.4736 18.6211" stroke="#000072" stroke-width="0.2" stroke-miterlimit="10"/>
<path d="M15.873 14.5735C15.873 14.5735 14.1469 17.9668 14.2996 18.2539" stroke="#000072" stroke-width="0.2" stroke-miterlimit="10"/>
<path d="M17.5222 14.3879C17.5222 14.3879 16.2099 17.8984 15.5996 18.7188" stroke="#000072" stroke-width="0.2" stroke-miterlimit="10"/>
<path d="M15.1553 15.0845C15.1553 15.0845 15.5546 14.6694 15.6533 15.0159C15.6533 15.0159 15.9214 14.6281 16.1399 14.8937C16.1399 14.8937 16.6601 14.4823 16.7435 14.9426C16.7435 14.9426 17.2165 14.5765 17.2559 15.0845C17.2559 15.0845 17.4277 15.0368 17.4235 15.4635C17.4235 15.4635 17.5778 15.795 17.533 15.9238" stroke="#000072" stroke-width="0.2" stroke-miterlimit="10"/>
<path d="M15.8115 14.6975C15.8115 14.6975 16.1242 14.4201 16.3027 14.5749C16.3027 14.5749 16.7234 14.156 16.9427 14.5045C16.9427 14.5045 17.3588 14.4323 17.3662 14.7975C17.3662 14.7975 17.5346 15.0051 17.5215 15.0859C17.5215 15.0859 17.3287 16.3585 16.9598 17.1147C16.9598 17.1147 16.4708 18.7626 15.9729 18.8945" stroke="#000072" stroke-width="0.2" stroke-miterlimit="10"/>
<path d="M15.0938 15.3412C15.0938 15.3412 15.3437 15.0347 15.492 15.3412C15.492 15.3412 15.8586 14.9941 15.8734 15.3412C15.8734 15.3412 16.4521 15.0664 16.5284 15.4112C16.5284 15.4112 16.9557 15.1121 17.042 15.6235C17.042 15.6235 17.4528 15.4726 17.3225 15.993C17.3225 15.993 17.5504 15.9345 17.5074 16.2617" stroke="#000072" stroke-width="0.2" stroke-miterlimit="10"/>
<path d="M14.8682 15.7237C14.8682 15.7237 15.2314 15.3904 15.2772 15.7827C15.2772 15.7827 15.6289 15.4463 15.6481 15.8715C15.6481 15.8715 16.2766 15.5546 16.2623 15.9924C16.2623 15.9924 16.7013 15.855 16.7801 16.267C16.7801 16.267 17.1593 16.1428 17.1988 16.4905C17.1988 16.4905 17.4785 16.4734 17.4523 16.6953" stroke="#000072" stroke-width="0.2" stroke-miterlimit="10"/>
<path d="M14.6768 16.1479C14.6768 16.1479 14.9567 15.6889 15.1268 16.1452C15.1268 16.1452 15.3532 15.9446 15.456 16.2288C15.456 16.2288 16.0066 16.0484 16.0548 16.4499C16.0548 16.4499 16.4274 16.22 16.6131 16.5831C16.6131 16.5831 17.0452 16.513 17.1081 16.7634C17.1081 16.7634 17.3051 16.7031 17.3758 16.916" stroke="#000072" stroke-width="0.2" stroke-miterlimit="10"/>
<path d="M14.5674 16.4149C14.5674 16.4149 14.8264 16.2819 14.9036 16.5841C14.9036 16.5841 15.1719 16.3536 15.2796 16.6301C15.2796 16.6301 15.7188 16.4651 15.8596 16.811C15.8596 16.811 16.3355 16.6338 16.4901 16.9601C16.4901 16.9601 16.8128 16.8759 16.9888 17.0909C16.9888 17.0909 17.2029 17.0119 17.2321 17.2266" stroke="#000072" stroke-width="0.2" stroke-miterlimit="10"/>
<path d="M14.3789 16.7688C14.3789 16.7688 14.738 16.5068 14.7374 16.9464C14.7374 16.9464 15.0493 16.7296 15.0929 17.0003C15.0929 17.0003 15.5785 16.862 15.6985 17.2255C15.6985 17.2255 16.1028 16.9361 16.3024 17.3778C16.3024 17.3778 16.7184 17.1591 16.8127 17.5195" stroke="#000072" stroke-width="0.2" stroke-miterlimit="10"/>
<path d="M14.2471 17.1908C14.2471 17.1908 14.5246 16.8968 14.6172 17.2265C14.6172 17.2265 14.8727 17.0141 14.967 17.3156C14.967 17.3156 15.4139 17.1939 15.5648 17.5205C15.5648 17.5205 15.966 17.3515 16.1613 17.6873C16.1613 17.6873 16.5081 17.4702 16.6872 17.8008" stroke="#000072" stroke-width="0.2" stroke-miterlimit="10"/>
<path d="M14.123 17.4671C14.123 17.4671 14.4074 17.2942 14.497 17.5194C14.497 17.5194 14.7461 17.3503 14.842 17.6016C14.842 17.6016 15.3306 17.5028 15.4064 17.7996C15.4064 17.7996 15.8523 17.6743 16.0255 17.97C16.0255 17.97 16.3644 17.8521 16.5605 18.0859C16.5605 18.0859 16.6399 18.0392 16.6398 18.2539" stroke="#000072" stroke-width="0.2" stroke-miterlimit="10"/>
<path d="M14.0127 17.7295C14.0127 17.7295 14.3166 17.5764 14.3782 17.7727C14.3782 17.7727 14.7044 17.6443 14.7306 17.8639C14.7306 17.8639 15.2837 17.741 15.3165 18.0613C15.3165 18.0613 15.8061 17.9173 15.8785 18.255C15.8785 18.255 16.303 18.0834 16.3968 18.4639C16.3968 18.4639 16.5624 18.3868 16.6104 18.6211" stroke="#000072" stroke-width="0.2" stroke-miterlimit="10"/>
<path d="M8.78418 14.0701C8.78418 14.0701 10.3581 16.6113 10.7259 18.2539" stroke="#000072" stroke-width="0.2" stroke-miterlimit="10"/>
<path d="M9.68848 14.5621C9.68848 14.5621 10.8643 16.6779 11.2548 18.0781" stroke="#000072" stroke-width="0.2" stroke-miterlimit="10"/>
<path d="M8.02832 14.4749C8.02832 14.4749 9.39906 18.2922 9.84794 18.5898" stroke="#000072" stroke-width="0.2" stroke-miterlimit="10"/>
<path d="M7.97266 15.1861C7.97266 15.1861 9.08131 18.5877 9.41202 18.7617" stroke="#000072" stroke-width="0.2" stroke-miterlimit="10"/>
<path d="M8.12793 14.627C8.12793 14.627 8.15851 14.2277 8.48971 14.4589C8.48971 14.4589 8.62168 14.1728 8.99689 14.4225C8.99689 14.4225 9.0965 14.2693 9.41343 14.394" stroke="#000072" stroke-width="0.2" stroke-miterlimit="10"/>
<path d="M8.04785 15.4102C8.04785 15.4102 8.07754 15.1292 8.31126 15.239C8.31126 15.239 8.38361 14.8497 8.78581 15.1218C8.78581 15.1218 8.86044 14.7123 9.30441 14.9629C9.30441 14.9629 9.58341 14.604 9.90473 14.9629C9.90473 14.9629 10.1399 14.7484 10.3116 14.9629" stroke="#000072" stroke-width="0.2" stroke-miterlimit="10"/>
<path d="M7.97266 15.0742C7.97266 15.0742 8.07575 14.9032 8.19959 14.9643C8.19959 14.9643 8.33311 14.5925 8.62144 14.7581C8.62144 14.7581 8.80416 14.4886 9.13389 14.6634C9.13389 14.6634 9.47719 14.5082 9.6876 14.6044" stroke="#000072" stroke-width="0.2" stroke-miterlimit="10"/>
<path d="M7.93555 15.9414C7.93555 15.9414 7.97518 15.7523 8.20007 15.8611C8.20007 15.8611 8.23107 15.5753 8.48878 15.723C8.48878 15.723 8.55488 15.3306 9.01354 15.5736C9.01354 15.5736 9.05984 15.1157 9.54662 15.4086C9.54662 15.4086 9.7607 15.0575 10.085 15.3107C10.085 15.3107 10.1211 15.1108 10.3695 15.2808" stroke="#000072" stroke-width="0.2" stroke-miterlimit="10"/>
<path d="M7.97266 16.3848C7.97266 16.3848 8.07526 16.0719 8.33714 16.2609C8.33714 16.2609 8.3913 15.9272 8.66051 16.148C8.66051 16.148 8.85996 15.8412 9.15206 15.9922C9.15206 15.9922 9.41486 15.5761 9.75563 15.8145C9.75563 15.8145 10.0031 15.494 10.2702 15.6832C10.2702 15.6832 10.2797 15.561 10.5325 15.6227" stroke="#000072" stroke-width="0.2" stroke-miterlimit="10"/>
<path d="M8.04785 16.6953C8.04785 16.6953 8.11834 16.3736 8.45023 16.5833C8.45023 16.5833 8.60435 16.3632 8.80514 16.5114C8.80514 16.5114 8.97786 16.1393 9.33472 16.3534C9.33472 16.3534 9.57427 16.0145 9.95904 16.2278C9.95904 16.2278 10.1349 15.9448 10.4736 16.1069C10.4736 16.1069 10.4448 15.9406 10.7021 16.0465" stroke="#000072" stroke-width="0.2" stroke-miterlimit="10"/>
<path d="M8.17969 17.0078C8.17969 17.0078 8.25695 16.7255 8.52484 16.8672C8.52484 16.8672 8.68446 16.5718 8.92691 16.7945C8.92691 16.7945 9.03379 16.4189 9.4874 16.6756C9.4874 16.6756 9.70384 16.3478 10.1026 16.5081C10.1026 16.5081 10.2609 16.1981 10.6179 16.3878C10.6179 16.3878 10.6921 16.2339 10.8723 16.3569" stroke="#000072" stroke-width="0.2" stroke-miterlimit="10"/>
<path d="M8.19824 17.2891C8.19824 17.2891 8.30695 16.9276 8.60389 17.0088C8.60389 17.0088 8.87069 16.8677 9.00518 16.9969C9.00518 16.9969 9.38877 16.7139 9.58574 16.9155C9.58574 16.9155 9.9821 16.6078 10.2223 16.8038C10.2223 16.8038 10.493 16.5805 10.7579 16.736C10.7579 16.736 10.9031 16.5788 11.0824 16.6945" stroke="#000072" stroke-width="0.2" stroke-miterlimit="10"/>
<path d="M11.2535 17.1261C11.2535 17.1261 10.9774 16.7679 10.9133 17.1049C10.9133 17.1049 10.4421 16.8276 10.3976 17.2249C10.3976 17.2249 9.93471 16.8835 9.7719 17.3296C9.7719 17.3296 9.29854 17.074 9.17823 17.4339C9.17823 17.4339 8.87634 17.1238 8.82971 17.519C8.82971 17.519 8.67209 17.4599 8.64453 17.6133" stroke="#000072" stroke-width="0.2" stroke-miterlimit="10"/>
<path d="M11.3779 17.4343C11.3779 17.4343 11.1227 17.1575 11.0548 17.4713C11.0548 17.4713 10.6796 17.2289 10.5209 17.5567C10.5209 17.5567 10.1163 17.3559 9.95909 17.7284C9.95909 17.7284 9.52627 17.4914 9.41145 17.8999C9.41145 17.8999 9.1142 17.7818 9.0125 18.0767C9.0125 18.0767 8.85967 18.0369 8.78418 18.2539" stroke="#000072" stroke-width="0.2" stroke-miterlimit="10"/>
<path d="M11.4381 17.6715C11.4381 17.6715 11.2455 17.3297 11.1555 17.7553C11.1555 17.7553 10.9165 17.6093 10.6366 17.9093C10.6366 17.9093 10.2785 17.7888 10.082 18.0216C10.082 18.0216 9.79845 17.945 9.5927 18.1493C9.5814 18.1605 9.57034 18.1726 9.55957 18.1855" stroke="#000072" stroke-width="0.2" stroke-miterlimit="10"/>
<path d="M9.56943 18.173C9.56943 18.173 9.30499 18.1494 9.16762 18.3915C9.16762 18.3915 8.9768 18.3995 8.8887 18.6204C8.8006 18.8412 8.84736 18.5887 8.84736 18.5887" stroke="#000072" stroke-width="0.2" stroke-miterlimit="10"/>
<path fill-rule="evenodd" clip-rule="evenodd" d="M12.7266 5.0932C15.764 5.0932 18.1006 8.19834 18.1006 10.7911C18.1006 13.384 13.8178 14.4317 12.7266 14.4828C11.6353 14.534 7.12988 13.3079 7.12988 10.7151C7.12988 8.12225 9.68917 5.0932 12.7266 5.0932Z" fill="#FF850B"/>
<path d="M12.728 5.21831C9.69892 5.21831 7.2597 8.22485 7.2597 10.7141C7.2597 11.3614 7.5592 11.9702 8.14995 12.5234C9.4658 13.7557 11.8666 14.3572 12.6604 14.3573C12.6822 14.3573 12.7026 14.3568 12.7219 14.3559C13.2971 14.329 14.622 14.0383 15.7669 13.4764C16.7737 12.9823 17.9737 12.1152 17.9737 10.7902C17.9737 8.2135 15.6823 5.21831 12.728 5.21831ZM12.6636 14.6094C11.8121 14.6094 9.35803 14.0032 7.9728 12.7059C7.32927 12.1032 7.00293 11.4331 7.00293 10.7141C7.00293 9.41631 7.63603 7.96997 8.69646 6.84519C9.82231 5.65104 11.2918 4.96614 12.728 4.96614C14.1733 4.96614 15.5666 5.64819 16.6514 6.88667C17.6401 8.01549 18.2305 9.47474 18.2305 10.7902C18.2305 11.9409 17.4183 12.9478 15.8817 13.7019C14.7033 14.2803 13.3317 14.5798 12.7341 14.6078C12.7121 14.6089 12.6885 14.6094 12.6636 14.6094Z" fill="#000072"/>
<g opacity="0.5">
<g opacity="0.5">
<path opacity="0.5" fill-rule="evenodd" clip-rule="evenodd" d="M12.7264 5.09208C14.5932 5.09208 16.195 6.26517 17.1526 7.77118C17.1626 7.81984 17.1722 7.86871 17.1806 7.91797C16.3063 6.65926 14.9432 5.82926 13.4336 5.60536C13.5304 5.64128 13.5865 5.68393 13.5865 5.72971C13.5865 5.85769 13.1477 5.96143 12.6064 5.96143C12.0651 5.96143 11.6263 5.85769 11.6263 5.72971C11.6263 5.68393 11.6823 5.64128 11.7791 5.60536C10.2694 5.82931 8.90647 6.65936 8.03223 7.91797L8.03706 7.89143C9.04512 6.32527 10.7884 5.09208 12.7264 5.09208Z" fill="white"/>
</g>
</g>
<path fill-rule="evenodd" clip-rule="evenodd" d="M17.9564 11.5859C17.2011 13.5995 13.6983 14.4354 12.7266 14.4809C11.7648 14.5259 8.15175 13.5788 7.30762 11.5785C7.37234 10.489 7.93589 10.1912 8.97809 10.7236C9.40668 10.9425 9.84267 11.1709 10.1881 10.997C12.1601 10.0043 13.3642 10.1914 14.7139 10.997C15.3451 11.3737 15.9611 10.8118 16.3475 10.6404C17.5784 10.0946 18.1431 10.4763 17.9564 11.5859Z" fill="white"/>
<g opacity="0.300003">
<g opacity="0.300003">
<path opacity="0.300003" fill-rule="evenodd" clip-rule="evenodd" d="M18.0773 10.338C18.0925 10.4902 18.1007 10.6414 18.1007 10.7908C18.1007 10.8863 18.0942 10.9794 18.0829 11.0708L18.0841 11.0435C17.9341 12.7738 14.3865 14.095 12.478 14.2017C10.8849 14.2908 7.70304 12.6064 7.16804 11.0435C7.16903 11.0759 7.17072 11.1082 7.17222 11.1405C7.14496 11.0029 7.12988 10.8611 7.12988 10.7148C7.12988 10.5983 7.13526 10.4809 7.14535 10.3629L7.15366 10.3376C8.39734 12.0939 10.4375 13.141 12.6157 13.141C14.7935 13.141 16.8336 12.0939 18.0773 10.338Z" fill="#000072"/>
</g>
</g>
<path fill-rule="evenodd" clip-rule="evenodd" d="M10.7623 9.50788C10.5925 9.43351 10.4186 9.30885 10.2409 9.13417C9.93293 9.14789 9.68652 9.47104 9.68652 9.86762C9.68652 10.273 9.94383 10.6016 10.2612 10.6016C10.5787 10.6016 10.836 10.273 10.836 9.86762C10.836 9.73691 10.8092 9.61421 10.7623 9.50788Z" fill="#000072"/>
<path d="M15.5865 8.81761C15.3792 9.08808 15.1754 9.29723 14.9751 9.44504C14.6804 9.66249 14.3615 9.70055 14.3262 9.46107C14.4847 9.44323 14.6498 9.37086 14.8216 9.24411C15.245 8.93157 15.3774 8.73035 15.5865 8.81761Z" fill="#000072"/>
<path fill-rule="evenodd" clip-rule="evenodd" d="M14.6196 9.50788C14.7894 9.43351 14.9633 9.30885 15.141 9.13417C15.449 9.14789 15.6954 9.47104 15.6954 9.86762C15.6954 10.273 15.4381 10.6016 15.1207 10.6016C14.8032 10.6016 14.5459 10.273 14.5459 9.86762C14.5459 9.73691 14.5727 9.61421 14.6196 9.50788Z" fill="#000072"/>
<path fill-rule="evenodd" clip-rule="evenodd" d="M14.8816 9.68207C14.7884 9.68207 14.7129 9.76113 14.7129 9.85861C14.7129 9.9561 14.7884 10.0352 14.8816 10.0352C14.9748 10.0352 15.0503 9.9561 15.0503 9.85861C15.0503 9.76113 14.9748 9.68207 14.8816 9.68207Z" fill="white"/>
<path fill-rule="evenodd" clip-rule="evenodd" d="M12.6172 9.99805C13.0283 9.99805 13.3614 10.2162 13.3614 10.4853C13.3614 10.7545 13.0283 10.9727 12.6172 10.9727C12.2062 10.9727 11.873 10.7545 11.873 10.4853C11.873 10.2162 12.2062 9.99805 12.6172 9.99805Z" fill="#000072"/>
<path d="M13.3276 11.5684C13.0656 11.5684 12.8122 11.4727 12.6178 11.3017C12.4007 11.4959 12.1013 11.5863 11.8071 11.5403C11.4654 11.487 11.1755 11.2569 11.0507 10.9399C11.0251 10.875 11.058 10.802 11.1241 10.7768C11.1902 10.7517 11.2645 10.784 11.2901 10.8489C11.3821 11.0825 11.5956 11.252 11.8474 11.2913C12.0994 11.3306 12.3558 11.2345 12.517 11.0406C12.5411 11.0116 12.577 10.9946 12.615 10.9942C12.6534 10.9942 12.6894 11.01 12.7141 11.0384C12.8822 11.2319 13.1362 11.3347 13.3945 11.3134C13.6526 11.2922 13.886 11.1491 14.0188 10.9308C14.0552 10.871 14.1342 10.8515 14.1949 10.8873C14.2557 10.923 14.2756 11.0005 14.2392 11.0602C14.064 11.3481 13.7563 11.5367 13.416 11.5647C13.3865 11.5672 13.357 11.5684 13.3276 11.5684Z" fill="#000072"/>
<path fill-rule="evenodd" clip-rule="evenodd" d="M12.6168 11.1185C12.8844 11.3683 13.1473 11.4746 13.4056 11.4373C13.4695 13.0841 11.7698 13.017 11.8276 11.414C12.1443 11.4535 12.4072 11.355 12.6168 11.1185Z" fill="#000072"/>
<path d="M11.9559 11.5518C11.9686 11.9714 12.1201 12.3013 12.3725 12.4481C12.5392 12.545 12.7276 12.5464 12.8895 12.4517C13.1311 12.3104 13.27 11.994 13.2789 11.5734C13.0605 11.5666 12.841 11.4737 12.6237 11.2962C12.4367 11.4662 12.2148 11.5519 11.9617 11.5519C11.9598 11.5519 11.9578 11.5519 11.9559 11.5518ZM12.6364 12.7734C12.5015 12.7735 12.3659 12.7373 12.2417 12.6651C11.8762 12.4525 11.6787 11.9961 11.6998 11.4128L11.7048 11.2748L11.8442 11.2921C12.1183 11.3263 12.3392 11.2434 12.5204 11.0389L12.6084 10.9395L12.7056 11.0303C12.9454 11.2541 13.1686 11.3475 13.3873 11.3157L13.5289 11.2953L13.5343 11.4357C13.5568 12.015 13.3696 12.4643 13.0209 12.6684C12.9011 12.7384 12.7691 12.7734 12.6364 12.7734Z" fill="#000072"/>
<path fill-rule="evenodd" clip-rule="evenodd" d="M12.6312 12.0292C12.4026 12.0292 12.1879 12.1367 12.0537 12.3182C12.3627 12.7504 12.9106 12.7575 13.2058 12.3145C13.0714 12.1352 12.8581 12.0292 12.6312 12.0292Z" fill="#FF0066"/>
<path d="M12.2185 12.3239C12.3375 12.4528 12.4872 12.5226 12.6425 12.5212C12.7926 12.5188 12.9311 12.4492 13.0401 12.3232C12.9315 12.2186 12.7837 12.1581 12.6297 12.1581C12.475 12.1581 12.3271 12.2188 12.2185 12.3239ZM12.6345 12.7734C12.3701 12.7734 12.1202 12.6355 11.9472 12.3934L11.8945 12.3198L11.9484 12.2469C12.1063 12.0334 12.3609 11.9059 12.6297 11.9059C12.8962 11.9059 13.1497 12.0318 13.3077 12.2426L13.3606 12.3131L13.3118 12.3864C13.1507 12.6281 12.9083 12.7691 12.6467 12.7733C12.6427 12.7734 12.6386 12.7734 12.6345 12.7734Z" fill="#000072"/>
<path fill-rule="evenodd" clip-rule="evenodd" d="M17.4752 8.15234C16.6508 6.81424 15.6623 5.90829 14.5098 5.43465C16.7706 2.32315 17.759 3.22905 17.4752 8.15234Z" fill="#FF850B"/>
<path d="M14.7075 5.38031C15.7194 5.83389 16.6125 6.62895 17.3682 7.74828C17.506 4.71467 17.0871 3.90734 16.7017 3.77422C16.4076 3.6727 15.8245 3.87459 14.7075 5.38031ZM17.5806 8.56445L17.3661 8.21622C16.5598 6.90764 15.5823 6.01045 14.4609 5.54956L14.3125 5.48858L14.4059 5.35999C15.4401 3.93671 16.2187 3.33997 16.7869 3.53634C17.5117 3.78674 17.7714 5.25533 17.6041 8.15807L17.5806 8.56445Z" fill="#000072"/>
<path fill-rule="evenodd" clip-rule="evenodd" d="M14.3146 8.31314C14.5047 8.23657 14.6964 8.26432 14.7426 8.37515C14.7889 8.48598 14.6722 8.63794 14.4822 8.71457C14.292 8.79113 14.1003 8.76333 14.0541 8.65251C14.0078 8.54168 14.1245 8.38971 14.3146 8.31314Z" fill="white"/>
<path fill-rule="evenodd" clip-rule="evenodd" d="M11.0007 8.30537C10.8106 8.22875 10.6189 8.25655 10.5726 8.36737C10.5264 8.4782 10.643 8.63017 10.8331 8.70673C11.0232 8.78331 11.2149 8.75555 11.2612 8.64473C11.3074 8.5339 11.1908 8.38193 11.0007 8.30537Z" fill="white"/>
<path fill-rule="evenodd" clip-rule="evenodd" d="M10.3465 9.68207C10.2532 9.68207 10.1777 9.76113 10.1777 9.85861C10.1777 9.9561 10.2532 10.0352 10.3465 10.0352C10.4397 10.0352 10.5152 9.9561 10.5152 9.85861C10.5152 9.76113 10.4397 9.68207 10.3465 9.68207Z" fill="white"/>
<path fill-rule="evenodd" clip-rule="evenodd" d="M7.84242 8.21484C8.66681 6.87669 9.65527 5.97079 10.8078 5.4971C8.54702 2.38561 7.55855 3.29155 7.84242 8.21484Z" fill="#FF850B"/>
<path d="M8.75352 3.81653C8.70192 3.81653 8.6564 3.82474 8.61624 3.83862C8.23088 3.97175 7.81195 4.77906 7.94983 7.81266C8.70542 6.69337 9.59853 5.8983 10.6104 5.44468C9.64597 4.14459 9.07951 3.81653 8.75352 3.81653ZM7.73739 8.62891L7.71395 8.22248C7.5466 5.31972 7.80623 3.85114 8.53104 3.60072C9.09891 3.40459 9.87777 4.00099 10.912 5.42436L11.0054 5.55295L10.8571 5.61392C9.73553 6.07487 8.7581 6.97208 7.95195 8.28064L7.73739 8.62891Z" fill="#000072"/>
<g opacity="0.649994">
<g opacity="0.649994">
<path opacity="0.649994" fill-rule="evenodd" clip-rule="evenodd" d="M10.5222 5.625C10.6155 5.5797 10.7099 5.53743 10.8055 5.4981C9.40432 3.56966 8.49212 3.18514 8.06836 4.34299C8.51963 3.52881 9.3375 3.95608 10.522 5.6249L10.5222 5.625Z" fill="white"/>
</g>
</g>
<path fill-rule="evenodd" clip-rule="evenodd" d="M8.45937 7.30859C8.86124 6.82039 9.31669 6.39781 9.82578 6.04095C8.68458 3.85823 8.22908 4.28076 8.45937 7.30859Z" fill="#000072"/>
<path d="M8.75367 4.79306C8.74805 4.79306 8.74422 4.7938 8.74198 4.79442C8.72823 4.79822 8.60627 4.84759 8.55408 5.40349C8.51891 5.77805 8.52307 6.30991 8.56629 6.98732C8.8981 6.61859 9.26519 6.28769 9.66161 6.00016C9.06113 4.87287 8.81204 4.79306 8.75367 4.79306ZM8.35609 7.63281L8.33198 7.31548C8.15675 5.01148 8.4057 4.62545 8.67238 4.55168C8.99129 4.46326 9.37072 4.89084 9.94061 5.98084L9.9913 6.07779L9.90097 6.14108C9.4039 6.48951 8.95266 6.90814 8.5598 7.38537L8.35609 7.63281Z" fill="#000072"/>
<g opacity="0.300003">
<g opacity="0.300003">
<path opacity="0.300003" fill-rule="evenodd" clip-rule="evenodd" d="M8.60674 4.74141C8.19029 5.04731 7.9213 5.87492 7.7998 7.22417C7.80712 7.53402 7.8209 7.8642 7.8411 8.21484C7.90269 8.10544 7.96781 7.9973 8.03662 7.89088L8.03179 7.91741C8.36446 7.41904 8.72231 6.98698 9.10522 6.62118C8.8813 6.82861 8.67031 7.05192 8.47222 7.29107C8.46833 7.29575 8.46445 7.3004 8.46058 7.30519C8.46022 7.30557 8.45988 7.30601 8.45948 7.30655C8.45913 7.30695 8.45884 7.30734 8.45848 7.30773C8.3469 5.84067 8.39635 4.98525 8.60674 4.74141ZM16.7092 4.67765C17.1257 4.98358 17.3947 5.81115 17.5161 7.1604C17.5088 7.47025 17.495 7.80047 17.4749 8.15108C17.4132 8.04167 17.3481 7.93358 17.2793 7.82711L17.2841 7.85364C16.9515 7.35527 16.5937 6.92321 16.2107 6.55746C16.4347 6.76489 16.6456 6.9882 16.8437 7.22734C16.8476 7.23199 16.8515 7.23668 16.8553 7.24142C16.8557 7.24186 16.856 7.2423 16.8564 7.24278C16.8568 7.24322 16.8571 7.24357 16.8574 7.24401C16.9691 5.77695 16.9196 4.92148 16.7092 4.67765Z" fill="#000072"/>
</g>
</g>
<g opacity="0.649994">
<g opacity="0.649994">
<path opacity="0.649994" fill-rule="evenodd" clip-rule="evenodd" d="M14.7921 5.55859C14.6988 5.51329 14.6044 5.47102 14.5088 5.43174C15.91 3.5033 16.8222 3.11873 17.246 4.27659C16.7947 3.4624 15.9768 3.88972 14.7923 5.55854L14.7921 5.55859Z" fill="white"/>
</g>
</g>
<path fill-rule="evenodd" clip-rule="evenodd" d="M16.8596 7.24219C16.4577 6.75393 16.0022 6.33135 15.4932 5.97449C16.6344 3.79177 17.0899 4.21434 16.8596 7.24219Z" fill="#000072"/>
<path d="M15.6559 5.93757C16.0523 6.22516 16.4194 6.55609 16.7512 6.92477C16.7944 6.24735 16.7985 5.71551 16.7634 5.34093C16.7112 4.78502 16.5892 4.73564 16.5755 4.73185C16.5501 4.72495 16.3142 4.70167 15.6559 5.93757ZM16.9613 7.57031L16.7576 7.32283C16.3649 6.84567 15.9137 6.42701 15.4165 6.0785L15.3262 6.01521L15.3769 5.91827C15.9467 4.82835 16.3258 4.40078 16.6451 4.48912C16.9117 4.56288 17.1607 4.94892 16.9855 7.25295L16.9613 7.57031Z" fill="#000072"/>
<path d="M8.75357 3.81655C8.70197 3.81655 8.65645 3.82475 8.61629 3.83863C8.23093 3.97176 7.81197 4.77909 7.94984 7.8127C8.70547 6.69338 9.59858 5.8983 10.6105 5.4447C9.64603 4.1446 9.07956 3.81655 8.75357 3.81655ZM7.73737 8.62891L7.71393 8.22249C7.54661 5.31974 7.80628 3.85114 8.5311 3.60073C9.09896 3.4046 9.87782 4.001 10.9121 5.42437L11.0055 5.55296L10.8571 5.61394C9.73558 6.07488 8.75815 6.9721 7.95194 8.28065L7.73737 8.62891Z" fill="#000072"/>
<path d="M12.728 5.21831C9.69892 5.21831 7.2597 8.22485 7.2597 10.7141C7.2597 11.3614 7.5592 11.9702 8.14995 12.5234C9.4658 13.7557 11.8666 14.3572 12.6604 14.3573C12.6822 14.3573 12.7026 14.3568 12.7219 14.3559C13.2971 14.329 14.622 14.0383 15.7669 13.4764C16.7737 12.9823 17.9737 12.1152 17.9737 10.7902C17.9737 8.2135 15.6823 5.21831 12.728 5.21831ZM12.6636 14.6094C11.8121 14.6094 9.35803 14.0032 7.9728 12.7059C7.32927 12.1032 7.00293 11.4331 7.00293 10.7141C7.00293 9.41631 7.63603 7.96997 8.69646 6.84519C9.82231 5.65104 11.2918 4.96614 12.728 4.96614C14.1733 4.96614 15.5666 5.64819 16.6514 6.88667C17.6401 8.01549 18.2305 9.47474 18.2305 10.7902C18.2305 11.9409 17.4183 12.9478 15.8817 13.7019C14.7033 14.2803 13.3317 14.5798 12.7341 14.6078C12.7121 14.6089 12.6885 14.6094 12.6636 14.6094Z" fill="#000072"/>
<g opacity="0.559998">
<g opacity="0.559998">
<path opacity="0.559998" fill-rule="evenodd" clip-rule="evenodd" d="M12.8613 10.1918C12.9735 10.2209 13.0566 10.2738 13.0468 10.3102C13.0371 10.3465 12.9382 10.3524 12.826 10.3233C12.7138 10.2943 12.6307 10.2413 12.6404 10.2049C12.6502 10.1686 12.7491 10.1627 12.8613 10.1918Z" fill="white"/>
</g>
</g>
<path d="M9.8877 8.81761C10.095 9.08808 10.2989 9.29723 10.4992 9.44504C10.7938 9.66249 11.1128 9.70055 11.1481 9.46107C10.9896 9.44323 10.8244 9.37086 10.6526 9.24411C10.2292 8.93157 10.0968 8.73035 9.8877 8.81761Z" fill="#000072"/>
<path d="M14.7075 5.38031C15.7194 5.83389 16.6125 6.62895 17.3682 7.74828C17.506 4.71467 17.0871 3.90734 16.7017 3.77422C16.4076 3.6727 15.8245 3.87459 14.7075 5.38031ZM17.5806 8.56445L17.3661 8.21622C16.5598 6.90764 15.5823 6.01045 14.4609 5.54956L14.3125 5.48858L14.4059 5.35999C15.4401 3.93671 16.2187 3.33997 16.7869 3.53634C17.5117 3.78674 17.7714 5.25533 17.6041 8.15807L17.5806 8.56445Z" fill="#000072"/>
</svg>
